<svg viewBox="0 0 17 17" xmlns="http://www.w3.org/2000/svg"> <g transform="translate(-6.000000, -6.000000)" fill="#F73250"> <path d="M23.0309793,16.4689304 L16.4685395,16.4689304 L16.4685395,23.0310696 C16.4685395,24.1185043 15.5870033,25 14.4995188,25 C13.4120343,25 12.5304981,24.1185043 12.5304981,23.0310696 L12.5304981,16.4689304 L5.96902067,16.4689304 C4.88153613,16.4689304 4,15.5874347 4,14.5 C4,13.4125653 4.88153613,12.5310696 5.96902067,12.5310696 L12.5304981,12.5310696 L12.5304981,5.96893044 C12.5304981,4.88149574 13.4120343,4 14.4995188,4 C15.5870033,4 16.4685395,4.88149574 16.4685395,5.96893044 L16.4685395,12.5310696 L23.0309793,12.5310696 C24.1184639,12.5310696 25,13.4125653 25,14.5 C25,15.5874347 24.1184639,16.4689304 23.0309793,16.4689304" id="Fill-17" transform="translate(14.500000, 14.500000) rotate(-45.000000) translate(-14.500000, -14.500000) "></path> </g> </svg>